%TF.GenerationSoftware,KiCad,Pcbnew,10.0.5*%
%TF.CreationDate,2026-07-24T20:46:32+05:30*%
%TF.ProjectId,LiIon_Battery_Protection,4c69496f-6e5f-4426-9174-746572795f50,rev?*%
%TF.SameCoordinates,Original*%
%TF.FileFunction,Copper,L1,Top*%
%TF.FilePolarity,Positive*%
%FSLAX46Y46*%
G04 Gerber Fmt 4.6, Leading zero omitted, Abs format (unit mm)*
G04 Created by KiCad (PCBNEW 10.0.5) date 2026-07-24 20:46:32*
%MOMM*%
%LPD*%
G01*
G04 APERTURE LIST*
G04 Aperture macros list*
%AMRoundRect*
0 Rectangle with rounded corners*
0 $1 Rounding radius*
0 $2 $3 $4 $5 $6 $7 $8 $9 X,Y pos of 4 corners*
0 Add a 4 corners polygon primitive as box body*
4,1,4,$2,$3,$4,$5,$6,$7,$8,$9,$2,$3,0*
0 Add four circle primitives for the rounded corners*
1,1,$1+$1,$2,$3*
1,1,$1+$1,$4,$5*
1,1,$1+$1,$6,$7*
1,1,$1+$1,$8,$9*
0 Add four rect primitives between the rounded corners*
20,1,$1+$1,$2,$3,$4,$5,0*
20,1,$1+$1,$4,$5,$6,$7,0*
20,1,$1+$1,$6,$7,$8,$9,0*
20,1,$1+$1,$8,$9,$2,$3,0*%
G04 Aperture macros list end*
%TA.AperFunction,SMDPad,CuDef*%
%ADD10RoundRect,0.250003X-3.499997X-2.999997X3.499997X-2.999997X3.499997X2.999997X-3.499997X2.999997X0*%
%TD*%
%TA.AperFunction,SMDPad,CuDef*%
%ADD11RoundRect,0.250000X-0.375000X-0.625000X0.375000X-0.625000X0.375000X0.625000X-0.375000X0.625000X0*%
%TD*%
%TA.AperFunction,SMDPad,CuDef*%
%ADD12RoundRect,0.250000X-0.450000X0.262500X-0.450000X-0.262500X0.450000X-0.262500X0.450000X0.262500X0*%
%TD*%
%TA.AperFunction,SMDPad,CuDef*%
%ADD13RoundRect,0.243750X0.243750X0.456250X-0.243750X0.456250X-0.243750X-0.456250X0.243750X-0.456250X0*%
%TD*%
%TA.AperFunction,SMDPad,CuDef*%
%ADD14C,1.500000*%
%TD*%
%TA.AperFunction,SMDPad,CuDef*%
%ADD15RoundRect,0.250000X1.000000X0.650000X-1.000000X0.650000X-1.000000X-0.650000X1.000000X-0.650000X0*%
%TD*%
%TA.AperFunction,SMDPad,CuDef*%
%ADD16RoundRect,0.250000X-0.262500X-0.450000X0.262500X-0.450000X0.262500X0.450000X-0.262500X0.450000X0*%
%TD*%
%TA.AperFunction,ComponentPad*%
%ADD17R,1.700000X1.700000*%
%TD*%
%TA.AperFunction,ComponentPad*%
%ADD18C,1.700000*%
%TD*%
%TA.AperFunction,SMDPad,CuDef*%
%ADD19RoundRect,0.250000X-0.475000X0.250000X-0.475000X-0.250000X0.475000X-0.250000X0.475000X0.250000X0*%
%TD*%
%TA.AperFunction,Conductor*%
%ADD20C,0.200000*%
%TD*%
%TA.AperFunction,Conductor*%
%ADD21C,0.800000*%
%TD*%
G04 APERTURE END LIST*
D10*
%TO.P,BT1,2,-_2*%
%TO.N,GND*%
X120000000Y-77000000D03*
%TO.P,BT1,1,+_1*%
%TO.N,/BAT_RAW*%
X40620000Y-77000000D03*
%TD*%
D11*
%TO.P,F1,2*%
%TO.N,Net-(D1-A)*%
X43500000Y-91460000D03*
%TO.P,F1,1*%
%TO.N,/BAT_RAW*%
X40700000Y-91460000D03*
%TD*%
D12*
%TO.P,R3,1*%
%TO.N,Net-(C1-Pad1)*%
X61000000Y-99000000D03*
%TO.P,R3,2*%
%TO.N,GND*%
X61000000Y-100825000D03*
%TD*%
D13*
%TO.P,LED1,1,K_1*%
%TO.N,GND*%
X120000000Y-91500000D03*
%TO.P,LED1,2,A_2*%
%TO.N,Net-(LED1-A)*%
X118125000Y-91500000D03*
%TD*%
D14*
%TO.P,TP2,1,1_1*%
%TO.N,GND*%
X69500000Y-101000000D03*
%TD*%
%TO.P,TP1,1,1_1*%
%TO.N,Net-(C1-Pad1)*%
X63000000Y-97500000D03*
%TD*%
D15*
%TO.P,D1,1,K_1*%
%TO.N,/BAT_PROTECTED*%
X61000000Y-91500000D03*
%TO.P,D1,2,A_2*%
%TO.N,Net-(D1-A)*%
X57000000Y-91500000D03*
%TD*%
D16*
%TO.P,R2,1*%
%TO.N,/BAT_PROTECTED*%
X61175000Y-95000000D03*
%TO.P,R2,2*%
%TO.N,Net-(C1-Pad1)*%
X63000000Y-95000000D03*
%TD*%
%TO.P,R1,1*%
%TO.N,/BAT_PROTECTED*%
X76675000Y-91500000D03*
%TO.P,R1,2*%
%TO.N,Net-(LED1-A)*%
X78500000Y-91500000D03*
%TD*%
D17*
%TO.P,J1,1,Pin_1_1*%
%TO.N,/BAT_PROTECTED*%
X70500000Y-91500000D03*
D18*
%TO.P,J1,2,Pin_2_2*%
%TO.N,GND*%
X70500000Y-94040000D03*
%TD*%
D19*
%TO.P,C1,1*%
%TO.N,Net-(C1-Pad1)*%
X65000000Y-99100000D03*
%TO.P,C1,2*%
%TO.N,GND*%
X65000000Y-101000000D03*
%TD*%
%TO.N,GND*%
D20*
X69500000Y-101000000D02*
X65000000Y-101000000D01*
X64825000Y-100825000D02*
X65000000Y-101000000D01*
X61000000Y-100825000D02*
X64825000Y-100825000D01*
%TO.N,Net-(C1-Pad1)*%
X63400000Y-97500000D02*
X65000000Y-99100000D01*
X63000000Y-97500000D02*
X63400000Y-97500000D01*
X61500000Y-99000000D02*
X61000000Y-99000000D01*
X63000000Y-97500000D02*
X61500000Y-99000000D01*
X63000000Y-95000000D02*
X63000000Y-97500000D01*
%TO.N,/BAT_PROTECTED*%
X61000000Y-92500000D02*
X61175000Y-92675000D01*
X61000000Y-91500000D02*
X61000000Y-92500000D01*
X61175000Y-92675000D02*
X61175000Y-95000000D01*
X61175000Y-91675000D02*
X61000000Y-91500000D01*
%TO.N,GND*%
X120000000Y-91500000D02*
X120000000Y-77000000D01*
%TO.N,/BAT_PROTECTED*%
X61000000Y-94825000D02*
X61175000Y-95000000D01*
%TO.N,Net-(LED1-A)*%
X78500000Y-91500000D02*
X118125000Y-91500000D01*
%TO.N,/BAT_PROTECTED*%
X70500000Y-91500000D02*
X76675000Y-91500000D01*
X61000000Y-91500000D02*
X70500000Y-91500000D01*
%TO.N,Net-(D1-A)*%
X56960000Y-91460000D02*
X57000000Y-91500000D01*
X43500000Y-91460000D02*
X56960000Y-91460000D01*
%TO.N,/BAT_RAW*%
X40620000Y-91380000D02*
X40700000Y-91460000D01*
X40620000Y-77000000D02*
X40620000Y-91380000D01*
%TO.N,GND*%
D21*
X65000000Y-101000000D02*
X64965990Y-101000000D01*
D20*
X64982995Y-101017005D02*
X65000000Y-101000000D01*
%TD*%
%TA.AperFunction,Conductor*%
%TO.N,GND*%
G36*
X124942539Y-65020185D02*
G01*
X124988294Y-65072989D01*
X124999500Y-65124500D01*
X124999500Y-103875500D01*
X124979815Y-103942539D01*
X124927011Y-103988294D01*
X124875500Y-103999500D01*
X36124500Y-103999500D01*
X36057461Y-103979815D01*
X36011706Y-103927011D01*
X36000500Y-103875500D01*
X36000500Y-101841975D01*
X68870155Y-101841975D01*
X69002631Y-101930494D01*
X69002641Y-101930499D01*
X69193725Y-102009649D01*
X69193733Y-102009651D01*
X69396579Y-102049999D01*
X69396583Y-102050000D01*
X69603417Y-102050000D01*
X69603420Y-102049999D01*
X69806266Y-102009651D01*
X69806274Y-102009649D01*
X69997359Y-101930499D01*
X70129844Y-101841976D01*
X69500001Y-101212132D01*
X69500000Y-101212132D01*
X68870155Y-101841975D01*
X36000500Y-101841975D01*
X36000500Y-101130553D01*
X60000000Y-101130553D01*
X60010613Y-101218943D01*
X60066079Y-101359595D01*
X60157435Y-101480064D01*
X60277904Y-101571420D01*
X60418556Y-101626886D01*
X60506946Y-101637500D01*
X60850000Y-101637500D01*
X61150000Y-101637500D01*
X61493054Y-101637500D01*
X61581443Y-101626886D01*
X61722095Y-101571420D01*
X61842564Y-101480064D01*
X61933920Y-101359595D01*
X61960161Y-101293053D01*
X63975000Y-101293053D01*
X63985613Y-101381443D01*
X64041079Y-101522095D01*
X64132435Y-101642564D01*
X64252904Y-101733920D01*
X64393556Y-101789386D01*
X64481946Y-101800000D01*
X64850000Y-101800000D01*
X65150000Y-101800000D01*
X65518054Y-101800000D01*
X65606443Y-101789386D01*
X65747095Y-101733920D01*
X65795833Y-101696961D01*
X65795835Y-101696960D01*
X65867563Y-101642566D01*
X65958920Y-101522095D01*
X66014386Y-101381443D01*
X66025000Y-101293053D01*
X66025000Y-101150000D01*
X65150000Y-101150000D01*
X65150000Y-101800000D01*
X64850000Y-101800000D01*
X64850000Y-101150000D01*
X63975000Y-101150000D01*
X63975000Y-101293053D01*
X61960161Y-101293053D01*
X61989386Y-101218943D01*
X62000000Y-101130553D01*
X62000000Y-100975000D01*
X61150000Y-100975000D01*
X61150000Y-101637500D01*
X60850000Y-101637500D01*
X60850000Y-100975000D01*
X60000000Y-100975000D01*
X60000000Y-101130553D01*
X36000500Y-101130553D01*
X36000500Y-100896579D01*
X68450000Y-100896579D01*
X68450000Y-101103420D01*
X68490348Y-101306266D01*
X68490350Y-101306274D01*
X68569502Y-101497363D01*
X68569502Y-101497364D01*
X68658021Y-101629843D01*
X68658023Y-101629843D01*
X69287868Y-101000000D01*
X69287868Y-100999999D01*
X69712132Y-100999999D01*
X69712132Y-101000000D01*
X70341976Y-101629844D01*
X70430499Y-101497359D01*
X70509649Y-101306274D01*
X70509651Y-101306266D01*
X70549999Y-101103420D01*
X70550000Y-101103417D01*
X70550000Y-100896583D01*
X70549999Y-100896579D01*
X70509651Y-100693733D01*
X70509649Y-100693725D01*
X70430499Y-100502641D01*
X70430494Y-100502631D01*
X70341975Y-100370155D01*
X69712132Y-100999999D01*
X69287868Y-100999999D01*
X68658023Y-100370154D01*
X68658023Y-100370155D01*
X68569501Y-100502639D01*
X68490350Y-100693725D01*
X68490348Y-100693733D01*
X68450000Y-100896579D01*
X36000500Y-100896579D01*
X36000500Y-100706946D01*
X63975000Y-100706946D01*
X63975000Y-100850000D01*
X64850000Y-100850000D01*
X65150000Y-100850000D01*
X66025000Y-100850000D01*
X66025000Y-100706946D01*
X66014386Y-100618556D01*
X65958920Y-100477904D01*
X65867564Y-100357435D01*
X65795832Y-100303038D01*
X65795830Y-100303036D01*
X65747097Y-100266080D01*
X65606443Y-100210613D01*
X65518054Y-100200000D01*
X65150000Y-100200000D01*
X65150000Y-100850000D01*
X64850000Y-100850000D01*
X64850000Y-100200000D01*
X64481946Y-100200000D01*
X64393556Y-100210613D01*
X64252904Y-100266079D01*
X64132435Y-100357435D01*
X64041079Y-100477904D01*
X63985613Y-100618556D01*
X63975000Y-100706946D01*
X36000500Y-100706946D01*
X36000500Y-100519446D01*
X60000000Y-100519446D01*
X60000000Y-100675000D01*
X60850000Y-100675000D01*
X61150000Y-100675000D01*
X62000000Y-100675000D01*
X62000000Y-100519446D01*
X61989386Y-100431056D01*
X61933920Y-100290404D01*
X61842564Y-100169935D01*
X61826856Y-100158023D01*
X68870154Y-100158023D01*
X69500000Y-100787868D01*
X69500001Y-100787868D01*
X70129843Y-100158023D01*
X70129843Y-100158021D01*
X69997363Y-100069502D01*
X69806274Y-99990350D01*
X69806266Y-99990348D01*
X69603420Y-99950000D01*
X69396579Y-99950000D01*
X69193733Y-99990348D01*
X69193725Y-99990350D01*
X69002639Y-100069501D01*
X68870155Y-100158023D01*
X68870154Y-100158023D01*
X61826856Y-100158023D01*
X61722095Y-100078579D01*
X61581443Y-100023113D01*
X61493054Y-100012500D01*
X61150000Y-100012500D01*
X61150000Y-100675000D01*
X60850000Y-100675000D01*
X60850000Y-100012500D01*
X60506946Y-100012500D01*
X60418556Y-100023113D01*
X60277904Y-100078579D01*
X60157435Y-100169935D01*
X60066079Y-100290404D01*
X60010613Y-100431056D01*
X60000000Y-100519446D01*
X36000500Y-100519446D01*
X36000500Y-98683230D01*
X60099500Y-98683230D01*
X60099500Y-99316769D01*
X60102353Y-99347199D01*
X60102353Y-99347201D01*
X60147206Y-99475380D01*
X60147207Y-99475382D01*
X60227850Y-99584650D01*
X60337118Y-99665293D01*
X60379845Y-99680244D01*
X60465299Y-99710146D01*
X60495730Y-99713000D01*
X60495734Y-99713000D01*
X61504270Y-99713000D01*
X61534699Y-99710146D01*
X61534701Y-99710146D01*
X61598790Y-99687719D01*
X61662882Y-99665293D01*
X61772150Y-99584650D01*
X61852793Y-99475382D01*
X61877676Y-99404269D01*
X61897646Y-99347201D01*
X61897646Y-99347199D01*
X61900500Y-99316769D01*
X61900500Y-99075832D01*
X61920185Y-99008793D01*
X61936815Y-98988155D01*
X62514433Y-98410536D01*
X62575754Y-98377053D01*
X62645445Y-98382037D01*
X62649498Y-98383631D01*
X62722749Y-98413973D01*
X62889824Y-98447206D01*
X62906379Y-98450499D01*
X62906383Y-98450500D01*
X62906384Y-98450500D01*
X63093617Y-98450500D01*
X63093618Y-98450499D01*
X63277251Y-98413973D01*
X63450231Y-98342322D01*
X63585691Y-98251810D01*
X63652366Y-98230933D01*
X63719746Y-98249417D01*
X63742261Y-98267232D01*
X64064505Y-98589476D01*
X64097990Y-98650799D01*
X64093866Y-98718110D01*
X64077354Y-98765298D01*
X64077353Y-98765305D01*
X64074500Y-98795730D01*
X64074500Y-99404269D01*
X64077353Y-99434699D01*
X64077353Y-99434701D01*
X64122206Y-99562880D01*
X64122207Y-99562882D01*
X64202850Y-99672150D01*
X64312118Y-99752793D01*
X64354845Y-99767744D01*
X64440299Y-99797646D01*
X64470730Y-99800500D01*
X64470734Y-99800500D01*
X65529270Y-99800500D01*
X65559699Y-99797646D01*
X65559701Y-99797646D01*
X65623790Y-99775219D01*
X65687882Y-99752793D01*
X65797150Y-99672150D01*
X65877793Y-99562882D01*
X65900219Y-99498790D01*
X65922646Y-99434701D01*
X65922646Y-99434699D01*
X65925500Y-99404269D01*
X65925500Y-98795730D01*
X65922646Y-98765300D01*
X65922646Y-98765298D01*
X65883280Y-98652800D01*
X65877793Y-98637118D01*
X65797150Y-98527850D01*
X65687882Y-98447207D01*
X65687880Y-98447206D01*
X65559700Y-98402353D01*
X65529270Y-98399500D01*
X65529266Y-98399500D01*
X64775833Y-98399500D01*
X64708794Y-98379815D01*
X64688152Y-98363181D01*
X63986819Y-97661848D01*
X63953334Y-97600525D01*
X63950500Y-97574167D01*
X63950500Y-97406383D01*
X63950499Y-97406379D01*
X63913974Y-97222756D01*
X63913973Y-97222749D01*
X63842322Y-97049769D01*
X63842321Y-97049768D01*
X63842318Y-97049762D01*
X63738302Y-96894092D01*
X63738299Y-96894088D01*
X63605911Y-96761700D01*
X63605907Y-96761697D01*
X63450237Y-96657681D01*
X63450232Y-96657679D01*
X63450231Y-96657678D01*
X63420051Y-96645176D01*
X63377046Y-96627363D01*
X63322643Y-96583521D01*
X63300579Y-96517227D01*
X63300500Y-96512802D01*
X63300500Y-96001969D01*
X63320185Y-95934930D01*
X63372989Y-95889175D01*
X63383525Y-95884934D01*
X63475382Y-95852793D01*
X63584650Y-95772150D01*
X63665293Y-95662882D01*
X63687719Y-95598790D01*
X63710146Y-95534701D01*
X63710146Y-95534699D01*
X63713000Y-95504269D01*
X63713000Y-94495730D01*
X63710146Y-94465300D01*
X63710146Y-94465298D01*
X63665293Y-94337119D01*
X63665292Y-94337117D01*
X63644757Y-94309293D01*
X63584650Y-94227850D01*
X63475382Y-94147207D01*
X63475380Y-94147206D01*
X63347200Y-94102353D01*
X63316770Y-94099500D01*
X63316766Y-94099500D01*
X62683234Y-94099500D01*
X62683230Y-94099500D01*
X62652800Y-94102353D01*
X62652798Y-94102353D01*
X62524619Y-94147206D01*
X62524617Y-94147207D01*
X62415350Y-94227850D01*
X62334707Y-94337117D01*
X62334706Y-94337119D01*
X62289853Y-94465298D01*
X62289853Y-94465300D01*
X62287000Y-94495730D01*
X62287000Y-95504269D01*
X62289853Y-95534699D01*
X62289853Y-95534701D01*
X62334706Y-95662880D01*
X62334707Y-95662882D01*
X62415350Y-95772150D01*
X62524618Y-95852793D01*
X62616457Y-95884929D01*
X62673231Y-95925649D01*
X62698978Y-95990602D01*
X62699500Y-96001969D01*
X62699500Y-96512802D01*
X62679815Y-96579841D01*
X62627011Y-96625596D01*
X62622954Y-96627363D01*
X62549769Y-96657678D01*
X62549762Y-96657681D01*
X62394092Y-96761697D01*
X62394088Y-96761700D01*
X62261700Y-96894088D01*
X62261697Y-96894092D01*
X62157681Y-97049762D01*
X62157676Y-97049771D01*
X62086027Y-97222748D01*
X62086025Y-97222756D01*
X62049500Y-97406379D01*
X62049500Y-97593620D01*
X62086025Y-97777243D01*
X62086027Y-97777251D01*
X62116340Y-97850433D01*
X62123809Y-97919903D01*
X62092534Y-97982382D01*
X62089460Y-97985567D01*
X61775341Y-98299686D01*
X61714018Y-98333171D01*
X61646705Y-98329046D01*
X61534701Y-98289854D01*
X61534699Y-98289853D01*
X61504270Y-98287000D01*
X61504266Y-98287000D01*
X60495734Y-98287000D01*
X60495730Y-98287000D01*
X60465300Y-98289853D01*
X60465298Y-98289853D01*
X60337119Y-98334706D01*
X60337117Y-98334707D01*
X60227850Y-98415350D01*
X60147207Y-98524617D01*
X60147206Y-98524619D01*
X60102353Y-98652798D01*
X60102353Y-98652800D01*
X60099500Y-98683230D01*
X36000500Y-98683230D01*
X36000500Y-73945733D01*
X36669500Y-73945733D01*
X36669500Y-80054256D01*
X36672354Y-80084698D01*
X36717206Y-80212880D01*
X36797850Y-80322149D01*
X36893259Y-80392564D01*
X36907119Y-80402793D01*
X37035303Y-80447646D01*
X37065737Y-80450500D01*
X40195500Y-80450499D01*
X40262539Y-80470184D01*
X40308294Y-80522988D01*
X40319500Y-80574499D01*
X40319500Y-90271657D01*
X40299815Y-90338696D01*
X40247011Y-90384451D01*
X40236456Y-90388698D01*
X40112117Y-90432207D01*
X40002850Y-90512850D01*
X39922207Y-90622117D01*
X39922206Y-90622119D01*
X39877353Y-90750298D01*
X39877353Y-90750300D01*
X39874500Y-90780730D01*
X39874500Y-92139269D01*
X39877353Y-92169699D01*
X39877353Y-92169701D01*
X39922206Y-92297880D01*
X39922207Y-92297882D01*
X40002850Y-92407150D01*
X40112118Y-92487793D01*
X40147004Y-92500000D01*
X40240299Y-92532646D01*
X40270730Y-92535500D01*
X40270734Y-92535500D01*
X41129270Y-92535500D01*
X41159699Y-92532646D01*
X41159701Y-92532646D01*
X41223790Y-92510219D01*
X41287882Y-92487793D01*
X41397150Y-92407150D01*
X41477793Y-92297882D01*
X41503206Y-92225255D01*
X41522646Y-92169701D01*
X41522646Y-92169699D01*
X41525500Y-92139269D01*
X41525500Y-90780730D01*
X42674500Y-90780730D01*
X42674500Y-92139269D01*
X42677353Y-92169699D01*
X42677353Y-92169701D01*
X42722206Y-92297880D01*
X42722207Y-92297882D01*
X42802850Y-92407150D01*
X42912118Y-92487793D01*
X42947004Y-92500000D01*
X43040299Y-92532646D01*
X43070730Y-92535500D01*
X43070734Y-92535500D01*
X43929270Y-92535500D01*
X43959699Y-92532646D01*
X43959701Y-92532646D01*
X44023790Y-92510219D01*
X44087882Y-92487793D01*
X44197150Y-92407150D01*
X44277793Y-92297882D01*
X44303206Y-92225255D01*
X44322646Y-92169701D01*
X44322646Y-92169699D01*
X44325500Y-92139269D01*
X44325500Y-91884500D01*
X44345185Y-91817461D01*
X44397989Y-91771706D01*
X44449500Y-91760500D01*
X55425500Y-91760500D01*
X55492539Y-91780185D01*
X55538294Y-91832989D01*
X55549500Y-91884500D01*
X55549500Y-92204269D01*
X55552353Y-92234699D01*
X55552353Y-92234701D01*
X55593908Y-92353454D01*
X55597207Y-92362882D01*
X55677850Y-92472150D01*
X55787118Y-92552793D01*
X55829845Y-92567744D01*
X55915299Y-92597646D01*
X55945730Y-92600500D01*
X55945734Y-92600500D01*
X58054270Y-92600500D01*
X58084699Y-92597646D01*
X58084701Y-92597646D01*
X58148790Y-92575219D01*
X58212882Y-92552793D01*
X58322150Y-92472150D01*
X58402793Y-92362882D01*
X58433919Y-92273930D01*
X58447646Y-92234701D01*
X58447646Y-92234699D01*
X58450500Y-92204269D01*
X58450500Y-90795730D01*
X59549500Y-90795730D01*
X59549500Y-92204269D01*
X59552353Y-92234699D01*
X59552353Y-92234701D01*
X59593908Y-92353454D01*
X59597207Y-92362882D01*
X59677850Y-92472150D01*
X59787118Y-92552793D01*
X59829845Y-92567744D01*
X59915299Y-92597646D01*
X59945730Y-92600500D01*
X59945734Y-92600500D01*
X60639445Y-92600500D01*
X60706484Y-92620185D01*
X60746833Y-92662501D01*
X60759539Y-92684510D01*
X60838181Y-92763152D01*
X60871666Y-92824475D01*
X60874500Y-92850833D01*
X60874500Y-93998030D01*
X60854815Y-94065069D01*
X60802011Y-94110824D01*
X60791456Y-94115071D01*
X60699617Y-94147207D01*
X60590350Y-94227850D01*
X60509707Y-94337117D01*
X60509706Y-94337119D01*
X60464853Y-94465298D01*
X60464853Y-94465300D01*
X60462000Y-94495730D01*
X60462000Y-95504269D01*
X60464853Y-95534699D01*
X60464853Y-95534701D01*
X60509706Y-95662880D01*
X60509707Y-95662882D01*
X60590350Y-95772150D01*
X60699618Y-95852793D01*
X60742345Y-95867744D01*
X60827799Y-95897646D01*
X60858230Y-95900500D01*
X60858234Y-95900500D01*
X61491770Y-95900500D01*
X61522199Y-95897646D01*
X61522201Y-95897646D01*
X61586290Y-95875219D01*
X61650382Y-95852793D01*
X61759650Y-95772150D01*
X61840293Y-95662882D01*
X61862719Y-95598790D01*
X61885146Y-95534701D01*
X61885146Y-95534699D01*
X61888000Y-95504269D01*
X61888000Y-94495730D01*
X61885146Y-94465300D01*
X61885146Y-94465298D01*
X61840293Y-94337119D01*
X61840292Y-94337117D01*
X61819757Y-94309293D01*
X61759650Y-94227850D01*
X61650382Y-94147207D01*
X61650379Y-94147206D01*
X61558544Y-94115071D01*
X61539555Y-94101451D01*
X61518297Y-94091743D01*
X61511693Y-94081467D01*
X61501769Y-94074349D01*
X61493157Y-94052625D01*
X61480523Y-94032965D01*
X61477767Y-94013798D01*
X61476022Y-94009396D01*
X61475500Y-93998030D01*
X61475500Y-93949493D01*
X69350000Y-93949493D01*
X69350000Y-94130506D01*
X69378317Y-94309293D01*
X69434251Y-94481444D01*
X69434252Y-94481447D01*
X69516432Y-94642731D01*
X69587424Y-94740442D01*
X69587425Y-94740443D01*
X70056329Y-94271538D01*
X70099901Y-94347007D01*
X70192993Y-94440099D01*
X70268460Y-94483670D01*
X69799555Y-94952574D01*
X69897268Y-95023567D01*
X70058552Y-95105747D01*
X70058555Y-95105748D01*
X70230706Y-95161682D01*
X70409494Y-95190000D01*
X70590506Y-95190000D01*
X70769293Y-95161682D01*
X70941444Y-95105748D01*
X70941447Y-95105747D01*
X71102730Y-95023568D01*
X71200442Y-94952574D01*
X71200443Y-94952574D01*
X70731539Y-94483670D01*
X70807007Y-94440099D01*
X70900099Y-94347007D01*
X70943670Y-94271539D01*
X71412574Y-94740443D01*
X71412574Y-94740442D01*
X71483568Y-94642730D01*
X71565747Y-94481447D01*
X71565748Y-94481444D01*
X71621682Y-94309293D01*
X71650000Y-94130506D01*
X71650000Y-93949493D01*
X71621682Y-93770706D01*
X71565748Y-93598555D01*
X71565747Y-93598552D01*
X71483567Y-93437268D01*
X71412574Y-93339556D01*
X71412574Y-93339555D01*
X70943670Y-93808460D01*
X70900099Y-93732993D01*
X70807007Y-93639901D01*
X70731539Y-93596329D01*
X71200443Y-93127425D01*
X71200442Y-93127424D01*
X71102731Y-93056432D01*
X70941447Y-92974252D01*
X70941444Y-92974251D01*
X70769293Y-92918317D01*
X70590506Y-92890000D01*
X70409494Y-92890000D01*
X70230706Y-92918317D01*
X70058555Y-92974251D01*
X70058552Y-92974252D01*
X69897265Y-93056434D01*
X69799556Y-93127423D01*
X69799556Y-93127425D01*
X70268461Y-93596329D01*
X70192993Y-93639901D01*
X70099901Y-93732993D01*
X70056329Y-93808460D01*
X69587425Y-93339556D01*
X69587423Y-93339556D01*
X69516434Y-93437265D01*
X69434252Y-93598552D01*
X69434251Y-93598555D01*
X69378317Y-93770706D01*
X69350000Y-93949493D01*
X61475500Y-93949493D01*
X61475500Y-92724500D01*
X61495185Y-92657461D01*
X61547989Y-92611706D01*
X61599500Y-92600500D01*
X62054270Y-92600500D01*
X62084699Y-92597646D01*
X62084701Y-92597646D01*
X62148790Y-92575219D01*
X62212882Y-92552793D01*
X62322150Y-92472150D01*
X62402793Y-92362882D01*
X62433919Y-92273930D01*
X62447646Y-92234701D01*
X62447646Y-92234699D01*
X62450500Y-92204269D01*
X62450500Y-91924500D01*
X62470185Y-91857461D01*
X62522989Y-91811706D01*
X62574500Y-91800500D01*
X69325500Y-91800500D01*
X69392539Y-91820185D01*
X69438294Y-91872989D01*
X69449500Y-91924500D01*
X69449500Y-92369752D01*
X69461131Y-92428229D01*
X69461132Y-92428230D01*
X69505447Y-92494552D01*
X69571769Y-92538867D01*
X69571770Y-92538868D01*
X69630247Y-92550499D01*
X69630250Y-92550500D01*
X69630252Y-92550500D01*
X71369750Y-92550500D01*
X71369751Y-92550499D01*
X71384568Y-92547552D01*
X71428229Y-92538868D01*
X71428229Y-92538867D01*
X71428231Y-92538867D01*
X71494552Y-92494552D01*
X71538867Y-92428231D01*
X71538867Y-92428229D01*
X71538868Y-92428229D01*
X71550499Y-92369752D01*
X71550500Y-92369750D01*
X71550500Y-91924500D01*
X71570185Y-91857461D01*
X71622989Y-91811706D01*
X71674500Y-91800500D01*
X75838000Y-91800500D01*
X75905039Y-91820185D01*
X75950794Y-91872989D01*
X75962000Y-91924500D01*
X75962000Y-92004269D01*
X75964853Y-92034699D01*
X75964853Y-92034701D01*
X76001443Y-92139266D01*
X76009707Y-92162882D01*
X76090350Y-92272150D01*
X76199618Y-92352793D01*
X76228445Y-92362880D01*
X76327799Y-92397646D01*
X76358230Y-92400500D01*
X76358234Y-92400500D01*
X76991770Y-92400500D01*
X77022199Y-92397646D01*
X77022201Y-92397646D01*
X77086290Y-92375219D01*
X77150382Y-92352793D01*
X77259650Y-92272150D01*
X77340293Y-92162882D01*
X77362719Y-92098790D01*
X77385146Y-92034701D01*
X77385146Y-92034699D01*
X77388000Y-92004269D01*
X77388000Y-90995730D01*
X77787000Y-90995730D01*
X77787000Y-92004269D01*
X77789853Y-92034699D01*
X77789853Y-92034701D01*
X77826443Y-92139266D01*
X77834707Y-92162882D01*
X77915350Y-92272150D01*
X78024618Y-92352793D01*
X78053445Y-92362880D01*
X78152799Y-92397646D01*
X78183230Y-92400500D01*
X78183234Y-92400500D01*
X78816770Y-92400500D01*
X78847199Y-92397646D01*
X78847201Y-92397646D01*
X78911290Y-92375219D01*
X78975382Y-92352793D01*
X79084650Y-92272150D01*
X79165293Y-92162882D01*
X79187719Y-92098790D01*
X79210146Y-92034701D01*
X79210146Y-92034699D01*
X79213000Y-92004269D01*
X79213000Y-91924500D01*
X79232685Y-91857461D01*
X79285489Y-91811706D01*
X79337000Y-91800500D01*
X117313000Y-91800500D01*
X117380039Y-91820185D01*
X117425794Y-91872989D01*
X117437000Y-91924500D01*
X117437000Y-92009768D01*
X117439813Y-92039769D01*
X117439815Y-92039781D01*
X117484044Y-92166178D01*
X117484045Y-92166180D01*
X117563569Y-92273930D01*
X117671319Y-92353454D01*
X117671321Y-92353455D01*
X117797718Y-92397684D01*
X117797722Y-92397684D01*
X117797726Y-92397686D01*
X117812731Y-92399093D01*
X117827732Y-92400500D01*
X117827736Y-92400500D01*
X118422268Y-92400500D01*
X118435601Y-92399249D01*
X118452274Y-92397686D01*
X118452278Y-92397684D01*
X118452281Y-92397684D01*
X118532105Y-92369752D01*
X118578679Y-92353455D01*
X118686430Y-92273930D01*
X118765955Y-92166179D01*
X118810186Y-92039774D01*
X118813000Y-92009764D01*
X118813000Y-91998818D01*
X119212500Y-91998818D01*
X119222993Y-92086198D01*
X119222993Y-92086199D01*
X119277830Y-92225255D01*
X119368145Y-92344354D01*
X119487244Y-92434669D01*
X119626301Y-92489506D01*
X119713682Y-92500000D01*
X119850000Y-92500000D01*
X120150000Y-92500000D01*
X120286318Y-92500000D01*
X120373698Y-92489506D01*
X120373699Y-92489506D01*
X120512755Y-92434669D01*
X120631854Y-92344354D01*
X120722169Y-92225255D01*
X120777006Y-92086199D01*
X120777006Y-92086198D01*
X120787500Y-91998818D01*
X120787500Y-91650000D01*
X120150000Y-91650000D01*
X120150000Y-92500000D01*
X119850000Y-92500000D01*
X119850000Y-91650000D01*
X119212500Y-91650000D01*
X119212500Y-91998818D01*
X118813000Y-91998818D01*
X118813000Y-91001181D01*
X119212500Y-91001181D01*
X119212500Y-91350000D01*
X119850000Y-91350000D01*
X120150000Y-91350000D01*
X120787500Y-91350000D01*
X120787500Y-91001181D01*
X120777006Y-90913801D01*
X120777006Y-90913800D01*
X120722169Y-90774744D01*
X120631854Y-90655645D01*
X120512755Y-90565330D01*
X120373698Y-90510493D01*
X120286318Y-90500000D01*
X120150000Y-90500000D01*
X120150000Y-91350000D01*
X119850000Y-91350000D01*
X119850000Y-90500000D01*
X119713682Y-90500000D01*
X119626301Y-90510493D01*
X119626300Y-90510493D01*
X119487244Y-90565330D01*
X119368145Y-90655645D01*
X119277830Y-90774744D01*
X119222993Y-90913800D01*
X119222993Y-90913801D01*
X119212500Y-91001181D01*
X118813000Y-91001181D01*
X118813000Y-90990236D01*
X118810186Y-90960226D01*
X118810184Y-90960222D01*
X118810184Y-90960218D01*
X118765955Y-90833821D01*
X118765954Y-90833819D01*
X118686430Y-90726069D01*
X118578680Y-90646545D01*
X118578678Y-90646544D01*
X118452281Y-90602315D01*
X118452269Y-90602313D01*
X118422268Y-90599500D01*
X118422264Y-90599500D01*
X117827736Y-90599500D01*
X117827732Y-90599500D01*
X117797730Y-90602313D01*
X117797718Y-90602315D01*
X117671321Y-90646544D01*
X117671319Y-90646545D01*
X117563569Y-90726069D01*
X117484045Y-90833819D01*
X117484044Y-90833821D01*
X117439815Y-90960218D01*
X117439813Y-90960230D01*
X117437000Y-90990231D01*
X117437000Y-91075500D01*
X117417315Y-91142539D01*
X117364511Y-91188294D01*
X117313000Y-91199500D01*
X79337000Y-91199500D01*
X79269961Y-91179815D01*
X79224206Y-91127011D01*
X79213000Y-91075500D01*
X79213000Y-90995730D01*
X79210146Y-90965300D01*
X79210146Y-90965298D01*
X79165293Y-90837119D01*
X79165292Y-90837117D01*
X79084650Y-90727850D01*
X78975382Y-90647207D01*
X78975380Y-90647206D01*
X78847200Y-90602353D01*
X78816770Y-90599500D01*
X78816766Y-90599500D01*
X78183234Y-90599500D01*
X78183230Y-90599500D01*
X78152800Y-90602353D01*
X78152798Y-90602353D01*
X78024619Y-90647206D01*
X78024617Y-90647207D01*
X77915350Y-90727850D01*
X77834707Y-90837117D01*
X77834706Y-90837119D01*
X77789853Y-90965298D01*
X77789853Y-90965300D01*
X77787000Y-90995730D01*
X77388000Y-90995730D01*
X77385146Y-90965300D01*
X77385146Y-90965298D01*
X77340293Y-90837119D01*
X77340292Y-90837117D01*
X77259650Y-90727850D01*
X77150382Y-90647207D01*
X77150380Y-90647206D01*
X77022200Y-90602353D01*
X76991770Y-90599500D01*
X76991766Y-90599500D01*
X76358234Y-90599500D01*
X76358230Y-90599500D01*
X76327800Y-90602353D01*
X76327798Y-90602353D01*
X76199619Y-90647206D01*
X76199617Y-90647207D01*
X76090350Y-90727850D01*
X76009707Y-90837117D01*
X76009706Y-90837119D01*
X75964853Y-90965298D01*
X75964853Y-90965300D01*
X75962000Y-90995730D01*
X75962000Y-91075500D01*
X75942315Y-91142539D01*
X75889511Y-91188294D01*
X75838000Y-91199500D01*
X71674500Y-91199500D01*
X71607461Y-91179815D01*
X71561706Y-91127011D01*
X71550500Y-91075500D01*
X71550500Y-90630249D01*
X71550499Y-90630247D01*
X71538868Y-90571770D01*
X71538867Y-90571769D01*
X71494552Y-90505447D01*
X71428230Y-90461132D01*
X71428229Y-90461131D01*
X71369752Y-90449500D01*
X71369748Y-90449500D01*
X69630252Y-90449500D01*
X69630247Y-90449500D01*
X69571770Y-90461131D01*
X69571769Y-90461132D01*
X69505447Y-90505447D01*
X69461132Y-90571769D01*
X69461131Y-90571770D01*
X69449500Y-90630247D01*
X69449500Y-91075500D01*
X69429815Y-91142539D01*
X69377011Y-91188294D01*
X69325500Y-91199500D01*
X62574500Y-91199500D01*
X62507461Y-91179815D01*
X62461706Y-91127011D01*
X62450500Y-91075500D01*
X62450500Y-90795730D01*
X62447646Y-90765300D01*
X62447646Y-90765298D01*
X62406323Y-90647206D01*
X62402793Y-90637118D01*
X62322150Y-90527850D01*
X62212882Y-90447207D01*
X62212880Y-90447206D01*
X62084700Y-90402353D01*
X62054270Y-90399500D01*
X62054266Y-90399500D01*
X59945734Y-90399500D01*
X59945730Y-90399500D01*
X59915300Y-90402353D01*
X59915298Y-90402353D01*
X59787119Y-90447206D01*
X59787117Y-90447207D01*
X59677850Y-90527850D01*
X59597207Y-90637117D01*
X59597206Y-90637119D01*
X59552353Y-90765298D01*
X59552353Y-90765300D01*
X59549500Y-90795730D01*
X58450500Y-90795730D01*
X58447646Y-90765300D01*
X58447646Y-90765298D01*
X58406323Y-90647206D01*
X58402793Y-90637118D01*
X58322150Y-90527850D01*
X58212882Y-90447207D01*
X58212880Y-90447206D01*
X58084700Y-90402353D01*
X58054270Y-90399500D01*
X58054266Y-90399500D01*
X55945734Y-90399500D01*
X55945730Y-90399500D01*
X55915300Y-90402353D01*
X55915298Y-90402353D01*
X55787119Y-90447206D01*
X55787117Y-90447207D01*
X55677850Y-90527850D01*
X55597207Y-90637117D01*
X55597206Y-90637119D01*
X55552353Y-90765298D01*
X55552353Y-90765300D01*
X55549500Y-90795730D01*
X55549500Y-91035500D01*
X55529815Y-91102539D01*
X55477011Y-91148294D01*
X55425500Y-91159500D01*
X44449500Y-91159500D01*
X44382461Y-91139815D01*
X44336706Y-91087011D01*
X44325500Y-91035500D01*
X44325500Y-90780730D01*
X44322646Y-90750300D01*
X44322646Y-90750298D01*
X44277793Y-90622119D01*
X44277792Y-90622117D01*
X44197150Y-90512850D01*
X44087882Y-90432207D01*
X44087880Y-90432206D01*
X43959700Y-90387353D01*
X43929270Y-90384500D01*
X43929266Y-90384500D01*
X43070734Y-90384500D01*
X43070730Y-90384500D01*
X43040300Y-90387353D01*
X43040298Y-90387353D01*
X42912119Y-90432206D01*
X42912117Y-90432207D01*
X42802850Y-90512850D01*
X42722207Y-90622117D01*
X42722206Y-90622119D01*
X42677353Y-90750298D01*
X42677353Y-90750300D01*
X42674500Y-90780730D01*
X41525500Y-90780730D01*
X41522646Y-90750300D01*
X41522646Y-90750298D01*
X41477793Y-90622119D01*
X41477792Y-90622117D01*
X41397150Y-90512850D01*
X41287882Y-90432207D01*
X41287880Y-90432206D01*
X41159700Y-90387353D01*
X41129270Y-90384500D01*
X41129266Y-90384500D01*
X41044500Y-90384500D01*
X40977461Y-90364815D01*
X40931706Y-90312011D01*
X40920500Y-90260500D01*
X40920500Y-84870525D01*
X50714500Y-84870525D01*
X50714500Y-85129474D01*
X50714501Y-85129491D01*
X50748299Y-85386217D01*
X50748300Y-85386222D01*
X50748301Y-85386228D01*
X50748302Y-85386230D01*
X50815324Y-85636364D01*
X50914423Y-85875609D01*
X50914427Y-85875619D01*
X51043906Y-86099883D01*
X51201551Y-86305331D01*
X51201557Y-86305338D01*
X51384661Y-86488442D01*
X51384668Y-86488448D01*
X51590116Y-86646093D01*
X51814380Y-86775572D01*
X51814381Y-86775572D01*
X51814384Y-86775574D01*
X52053634Y-86874675D01*
X52303772Y-86941699D01*
X52560519Y-86975500D01*
X52560526Y-86975500D01*
X52819474Y-86975500D01*
X52819481Y-86975500D01*
X53076228Y-86941699D01*
X53326366Y-86874675D01*
X53565616Y-86775574D01*
X53789884Y-86646093D01*
X53995333Y-86488447D01*
X54178447Y-86305333D01*
X54336093Y-86099884D01*
X54465574Y-85875616D01*
X54564675Y-85636366D01*
X54631699Y-85386228D01*
X54665500Y-85129481D01*
X54665500Y-84870519D01*
X54631699Y-84613772D01*
X54564675Y-84363634D01*
X54465574Y-84124384D01*
X54336093Y-83900116D01*
X54178447Y-83694667D01*
X54178442Y-83694661D01*
X53995338Y-83511557D01*
X53995331Y-83511551D01*
X53789883Y-83353906D01*
X53565619Y-83224427D01*
X53565609Y-83224423D01*
X53326364Y-83125324D01*
X53201297Y-83091813D01*
X53076228Y-83058301D01*
X53076222Y-83058300D01*
X53076217Y-83058299D01*
X52819491Y-83024501D01*
X52819486Y-83024500D01*
X52819481Y-83024500D01*
X52560519Y-83024500D01*
X52560513Y-83024500D01*
X52560508Y-83024501D01*
X52303782Y-83058299D01*
X52303775Y-83058300D01*
X52303772Y-83058301D01*
X52250908Y-83072465D01*
X52053635Y-83125324D01*
X51814390Y-83224423D01*
X51814380Y-83224427D01*
X51590116Y-83353906D01*
X51384668Y-83511551D01*
X51384661Y-83511557D01*
X51201557Y-83694661D01*
X51201551Y-83694668D01*
X51043906Y-83900116D01*
X50914427Y-84124380D01*
X50914423Y-84124390D01*
X50815324Y-84363635D01*
X50748302Y-84613769D01*
X50748299Y-84613782D01*
X50714501Y-84870508D01*
X50714500Y-84870525D01*
X40920500Y-84870525D01*
X40920500Y-80574499D01*
X40940185Y-80507460D01*
X40992989Y-80461705D01*
X41044500Y-80450499D01*
X44174256Y-80450499D01*
X44174262Y-80450499D01*
X44204697Y-80447646D01*
X44332881Y-80402793D01*
X44442149Y-80322149D01*
X44522793Y-80212881D01*
X44567646Y-80084697D01*
X44570500Y-80054263D01*
X44570500Y-80043050D01*
X115950001Y-80043050D01*
X115960613Y-80131439D01*
X116016080Y-80272094D01*
X116107435Y-80392564D01*
X116227905Y-80483919D01*
X116368559Y-80539386D01*
X116456949Y-80549999D01*
X119849999Y-80549999D01*
X120150000Y-80549999D01*
X123543051Y-80549999D01*
X123631439Y-80539386D01*
X123772094Y-80483919D01*
X123892564Y-80392564D01*
X123983919Y-80272094D01*
X124039386Y-80131440D01*
X124050000Y-80043050D01*
X124050000Y-77150000D01*
X120150000Y-77150000D01*
X120150000Y-80549999D01*
X119849999Y-80549999D01*
X119850000Y-80549998D01*
X119850000Y-77150000D01*
X115950001Y-77150000D01*
X115950001Y-80043050D01*
X44570500Y-80043050D01*
X44570499Y-76850000D01*
X44570499Y-73956949D01*
X115950000Y-73956949D01*
X115950000Y-76850000D01*
X119850000Y-76850000D01*
X120150000Y-76850000D01*
X124049999Y-76850000D01*
X124049999Y-73956949D01*
X124039386Y-73868560D01*
X123983919Y-73727905D01*
X123892564Y-73607435D01*
X123772094Y-73516080D01*
X123631440Y-73460613D01*
X123543051Y-73450000D01*
X120150000Y-73450000D01*
X120150000Y-76850000D01*
X119850000Y-76850000D01*
X119850000Y-73450000D01*
X116456949Y-73450000D01*
X116368560Y-73460613D01*
X116227905Y-73516080D01*
X116107435Y-73607435D01*
X116016080Y-73727905D01*
X115960613Y-73868559D01*
X115950000Y-73956949D01*
X44570499Y-73956949D01*
X44570499Y-73953237D01*
X44570499Y-73945743D01*
X44570499Y-73945738D01*
X44567646Y-73915303D01*
X44522793Y-73787119D01*
X44479091Y-73727905D01*
X44442149Y-73677850D01*
X44332880Y-73597206D01*
X44204694Y-73552353D01*
X44174266Y-73549500D01*
X37065743Y-73549500D01*
X37035301Y-73552354D01*
X36907119Y-73597206D01*
X36797850Y-73677850D01*
X36717206Y-73787119D01*
X36672353Y-73915303D01*
X36672353Y-73915307D01*
X36669500Y-73945733D01*
X36000500Y-73945733D01*
X36000500Y-68886231D01*
X42734500Y-68886231D01*
X42734500Y-69113768D01*
X42770093Y-69338490D01*
X42840400Y-69554876D01*
X42840401Y-69554879D01*
X42943697Y-69757607D01*
X43077434Y-69941680D01*
X43238320Y-70102566D01*
X43422393Y-70236303D01*
X43521825Y-70286966D01*
X43625120Y-70339598D01*
X43625123Y-70339599D01*
X43733316Y-70374752D01*
X43841511Y-70409907D01*
X43945591Y-70426391D01*
X44066232Y-70445500D01*
X44066237Y-70445500D01*
X44293768Y-70445500D01*
X44402710Y-70428244D01*
X44518489Y-70409907D01*
X44734879Y-70339598D01*
X44937607Y-70236303D01*
X45121680Y-70102566D01*
X45282566Y-69941680D01*
X45416303Y-69757607D01*
X45519598Y-69554879D01*
X45589907Y-69338489D01*
X45608244Y-69222710D01*
X45625500Y-69113768D01*
X45625500Y-68886232D01*
X45625440Y-68885854D01*
X45625440Y-68885852D01*
X45623012Y-68870525D01*
X105954500Y-68870525D01*
X105954500Y-69129474D01*
X105954501Y-69129491D01*
X105988299Y-69386217D01*
X105988300Y-69386222D01*
X105988301Y-69386228D01*
X105988302Y-69386230D01*
X106055324Y-69636364D01*
X106154423Y-69875609D01*
X106154427Y-69875619D01*
X106283906Y-70099883D01*
X106441551Y-70305331D01*
X106441557Y-70305338D01*
X106624661Y-70488442D01*
X106624668Y-70488448D01*
X106830116Y-70646093D01*
X107054380Y-70775572D01*
X107054381Y-70775572D01*
X107054384Y-70775574D01*
X107293634Y-70874675D01*
X107543772Y-70941699D01*
X107800519Y-70975500D01*
X107800526Y-70975500D01*
X108059474Y-70975500D01*
X108059481Y-70975500D01*
X108316228Y-70941699D01*
X108566366Y-70874675D01*
X108805616Y-70775574D01*
X109029884Y-70646093D01*
X109235333Y-70488447D01*
X109418447Y-70305333D01*
X109576093Y-70099884D01*
X109705574Y-69875616D01*
X109804675Y-69636366D01*
X109871699Y-69386228D01*
X109905500Y-69129481D01*
X109905500Y-68870519D01*
X109871699Y-68613772D01*
X109804675Y-68363634D01*
X109705574Y-68124384D01*
X109576093Y-67900116D01*
X109574035Y-67897434D01*
X109418448Y-67694668D01*
X109418442Y-67694661D01*
X109235338Y-67511557D01*
X109235331Y-67511551D01*
X109029883Y-67353906D01*
X108805619Y-67224427D01*
X108805609Y-67224423D01*
X108566364Y-67125324D01*
X108441297Y-67091813D01*
X108316228Y-67058301D01*
X108316222Y-67058300D01*
X108316217Y-67058299D01*
X108059491Y-67024501D01*
X108059486Y-67024500D01*
X108059481Y-67024500D01*
X107800519Y-67024500D01*
X107800513Y-67024500D01*
X107800508Y-67024501D01*
X107543782Y-67058299D01*
X107543775Y-67058300D01*
X107543772Y-67058301D01*
X107490908Y-67072465D01*
X107293635Y-67125324D01*
X107054390Y-67224423D01*
X107054380Y-67224427D01*
X106830116Y-67353906D01*
X106624668Y-67511551D01*
X106624661Y-67511557D01*
X106441557Y-67694661D01*
X106441551Y-67694668D01*
X106283906Y-67900116D01*
X106154427Y-68124380D01*
X106154423Y-68124390D01*
X106055324Y-68363635D01*
X105988302Y-68613769D01*
X105988299Y-68613782D01*
X105954501Y-68870508D01*
X105954500Y-68870525D01*
X45623012Y-68870525D01*
X45589907Y-68661509D01*
X45519599Y-68445123D01*
X45519598Y-68445120D01*
X45416302Y-68242392D01*
X45282566Y-68058320D01*
X45121680Y-67897434D01*
X44937607Y-67763697D01*
X44734879Y-67660401D01*
X44734876Y-67660400D01*
X44518490Y-67590093D01*
X44293768Y-67554500D01*
X44293763Y-67554500D01*
X44066237Y-67554500D01*
X44066232Y-67554500D01*
X43841509Y-67590093D01*
X43625123Y-67660400D01*
X43625120Y-67660401D01*
X43422392Y-67763697D01*
X43317372Y-67839998D01*
X43238320Y-67897434D01*
X43238318Y-67897436D01*
X43238317Y-67897436D01*
X43077436Y-68058317D01*
X43077436Y-68058318D01*
X43077434Y-68058320D01*
X43029439Y-68124380D01*
X42943697Y-68242392D01*
X42840401Y-68445120D01*
X42840400Y-68445123D01*
X42770093Y-68661509D01*
X42734500Y-68886231D01*
X36000500Y-68886231D01*
X36000500Y-65124500D01*
X36020185Y-65057461D01*
X36072989Y-65011706D01*
X36124500Y-65000500D01*
X124875500Y-65000500D01*
X124942539Y-65020185D01*
G37*
%TD.AperFunction*%
%TD*%
M02*
